<?xml version="1.0" standalone="no"?>
<!DOCTYPE svg PUBLIC "-//W3C//DTD SVG 20010904//EN"
 "http://www.w3.org/TR/2001/REC-SVG-20010904/DTD/svg10.dtd">
<svg version="1.0" xmlns="http://www.w3.org/2000/svg"
 width="700.000000pt" height="700.000000pt" viewBox="0 0 700.000000 700.000000"
 preserveAspectRatio="xMidYMid meet">
<metadata>
Created by potrace 1.11, written by Peter Selinger 2001-2013
</metadata>
<g transform="translate(0.000000,700.000000) scale(0.100000,-0.100000)"
fill="#000000" stroke="none">
<path d="M3215 6989 c-781 -67 -1516 -388 -2075 -907 -643 -597 -1026 -1353
-1122 -2217 -17 -155 -17 -575 0 -730 74 -669 335 -1302 748 -1820 113 -142
408 -436 549 -549 348 -278 748 -487 1175 -616 1101 -332 2293 -102 3195 617
143 114 372 338 494 483 451 537 714 1155 803 1885 16 135 16 591 0 730 -105
884 -477 1619 -1122 2217 -637 592 -1499 923 -2380 917 -91 -1 -210 -6 -265
-10z m490 -369 c156 -11 241 -22 395 -51 833 -157 1588 -674 2046 -1401 84
-134 210 -382 268 -530 245 -623 279 -1339 95 -1993 -92 -324 -261 -677 -452
-945 -262 -367 -593 -673 -967 -893 -744 -437 -1625 -549 -2455 -312 -742 212
-1396 709 -1799 1368 -485 792 -595 1752 -302 2631 213 636 628 1188 1191
1581 568 397 1283 594 1980 545z"/>
<path d="M3330 6174 c-19 -2 -78 -9 -130 -15 -600 -68 -1202 -386 -1680 -885
-318 -332 -568 -747 -595 -986 l-6 -53 29 65 c194 432 638 783 1212 959 578
178 1197 194 1780 46 577 -146 1089 -435 1506 -850 216 -215 355 -405 475
-650 112 -230 171 -426 224 -748 16 -92 32 -164 36 -160 42 43 63 522 35 773
-116 1014 -638 1818 -1438 2213 -253 125 -567 222 -865 267 -132 20 -491 35
-583 24z"/>
<path d="M3363 4105 c-156 -42 -256 -148 -270 -289 l-6 -56 125 0 126 0 6 34
c15 77 72 116 171 116 111 0 165 -47 165 -144 0 -76 -32 -129 -150 -247 -117
-117 -127 -136 -137 -260 l-6 -69 117 0 116 0 0 40 c0 68 25 107 138 219 139
136 177 205 176 321 0 99 -24 166 -80 229 -49 55 -118 92 -202 110 -72 15
-226 13 -289 -4z"/>
<path d="M3399 3011 c-36 -35 -39 -43 -39 -93 0 -86 53 -138 142 -138 111 0
178 99 131 197 -24 51 -66 73 -137 73 -55 0 -61 -3 -97 -39z"/>
</g>
</svg>
